<svg xmlns="http://www.w3.org/2000/svg" width="523.274" height="114.557"><path d="M523.274 114.557H0V0h523.274zm-519.655-3.62h516.035V3.62H3.619z"/><path d="M326.554 74.66l-1.725-1.377 5.494-4.63 1.171 1.036c2.5 2.214 5.872 3.245 10.609 3.245 4.1 0 8.995-.752 8.995-4.331 0-1.067 0-2.853-5.19-3.268l-5.963-.454c-10.321-.7-12.492-5.647-12.492-9.676 0-6.314 5.773-10.394 14.705-10.394 5.191 0 10.148 1.262 13.594 3.461l2.081 1.328-5.441 4.559-1.11-.682a17.2 17.2 0 00-9.123-2.287c-2.746 0-7.35.522-7.35 4.016 0 1.069 0 2.857 5.626 3.263l5.827.423c3.338.247 12.19.906 12.19 9.712 0 6.536-6.358 10.759-16.2 10.759-6.693 0-11.682-1.495-15.698-4.703zm-46.928 0l-1.715-1.376 5.484-4.629 1.17 1.037c2.5 2.214 5.867 3.245 10.589 3.245 4.112 0 9.013-.752 9.013-4.331 0-1.067 0-2.851-5.2-3.268l-5.971-.454c-10.326-.7-12.495-5.647-12.495-9.676 0-6.217 5.917-10.394 14.725-10.394 5.189 0 10.139 1.262 13.585 3.462l2.072 1.323-5.406 4.561-1.111-.678a17.351 17.351 0 00-9.139-2.29c-2.752 0-7.373.522-7.373 4.016 0 1 0 2.855 5.636 3.263l5.824.423c3.339.247 12.2.905 12.2 9.712 0 6.536-6.366 10.759-16.219 10.759-6.688-.002-11.668-1.497-15.669-4.708zm200.646 4.33v-33.8h7.419v33.8zm-103.949 0v-33.8h7.429v33.8zm-122.226 0v-33.8h7.421v33.8zm-103.942 0v-33.8h7.421v33.8zm-114.472 0v-33.8h7.422v33.8zm416.762 0V58.469c0-4.793-2.736-7.223-8.132-7.223-5.132 0-8.321 2.548-8.321 6.651V78.99h-7.43V58.469c0-4.793-2.732-7.223-8.119-7.223-3.8 0-8.329 1.253-8.329 7.223V78.99h-7.431v-33.8h7.432v1.771a17.915 17.915 0 018.851-2.154c4.963 0 9.021 1.57 11.68 4.47a17.121 17.121 0 0112.118-4.47 16.711 16.711 0 0110.625 3.264 12.212 12.212 0 014.406 9.816V78.98zm-226.183 0V58.469c0-4.793-2.732-7.223-8.118-7.223-5.142 0-8.336 2.548-8.336 6.651V78.99h-7.43V58.469c0-4.793-2.73-7.223-8.112-7.223-3.8 0-8.333 1.253-8.333 7.223V78.99h-7.418v-33.8h7.418v1.777a17.928 17.928 0 018.862-2.16c4.957 0 9.013 1.571 11.676 4.472a17.141 17.141 0 0112.12-4.472 16.673 16.673 0 0110.618 3.266 12.156 12.156 0 014.4 9.814V78.98zm-99.075 0c-6.359 0-10.466-3.811-10.466-9.709V51.195h-4.929v-6.006h4.929v-9.655h7.421v9.655h8.133v6.006h-8.133v18.161c0 1.665.45 3.2 3.711 3.2h4.423v6.43zm-39.28 0V58.469c0-4.793-2.723-7.223-8.1-7.223-3.809 0-8.349 1.253-8.349 7.223V78.99h-7.421v-33.8h7.421v1.763a17.527 17.527 0 018.79-2.146c4.4 0 7.995 1.1 10.682 3.264a12.163 12.163 0 014.412 9.816V78.98z"/></svg>